<svg 
 xmlns="http://www.w3.org/2000/svg"
 xmlns:xlink="http://www.w3.org/1999/xlink"
 width="17px" height="16px">
<path fill-rule="evenodd"  fill="rgb(71, 158, 255)"
 d="M10.554,8.000 L16.973,15.690 C17.072,15.808 16.983,15.983 16.821,15.983 L14.951,15.983 C14.832,15.983 14.719,15.933 14.646,15.845 L8.472,8.449 C8.251,8.186 8.251,7.816 8.472,7.553 L14.646,0.155 C14.719,0.069 14.832,0.017 14.951,0.017 L16.821,0.017 C16.983,0.017 17.072,0.191 16.973,0.309 L10.554,8.000 ZM3.202,8.000 L9.620,15.690 C9.720,15.808 9.630,15.983 9.468,15.983 L7.598,15.983 C7.480,15.983 7.366,15.933 7.294,15.845 L1.119,8.449 C0.899,8.186 0.899,7.816 1.119,7.553 L7.294,0.155 C7.366,0.069 7.480,0.017 7.598,0.017 L9.468,0.017 C9.630,0.017 9.720,0.191 9.620,0.309 L3.202,8.000 Z"/>
</svg>
